<svg width="282" height="39" viewBox="0 0 282 39" fill="none" xmlns="http://www.w3.org/2000/svg">
<ellipse cx="17.9402" cy="19.975" rx="17.375" ry="17.375" fill="#FF8002"/>
<path d="M53.3711 19.119C57.5844 28.2422 53.3711 19.119 61 35.638C51.9645 39.8922 41.2241 35.9451 37.0108 26.8219C32.7974 17.6987 36.7066 6.85419 45.7421 2.59998C53.3711 19.119 49.1577 9.99578 53.3711 19.119Z" fill="#41BCF4"/>
<path d="M86.9408 38.3185L73.0001 0.572739H82.2015L92.8718 33.2333H92.0681L102.738 0.572739H111.94L97.9991 38.3185H86.9408Z" fill="white"/>
<path d="M118.442 39C116.539 39 114.783 38.6855 113.176 38.0564C111.568 37.4098 110.275 36.4574 109.296 35.1992C108.335 33.941 107.855 32.3683 107.855 30.481C107.855 28.4539 108.474 26.7326 109.712 25.3172C110.95 23.9017 112.751 22.827 115.116 22.0931C117.481 21.3416 120.336 20.9659 123.68 20.9659H127.893L127.394 21.6737V20.0485C127.394 18.1787 127.034 16.7894 126.313 15.8807C125.592 14.9546 124.401 14.4915 122.738 14.4915C121.149 14.4915 119.929 14.8934 119.079 15.6972C118.248 16.4836 117.74 17.6107 117.555 19.0786L109.13 17.7156C109.444 16.1429 110.155 14.7274 111.264 13.4692C112.391 12.1935 113.943 11.18 115.92 10.4286C117.897 9.67715 120.326 9.30144 123.209 9.30144C125.851 9.30144 128.087 9.70336 129.916 10.5072C131.745 11.2936 133.131 12.578 134.073 14.3604C135.034 16.1429 135.514 18.5282 135.514 21.5164V31.1363C135.514 31.7304 135.598 32.1236 135.764 32.3159C135.949 32.5081 136.327 32.6042 136.9 32.6042H138.258V38.3185H134.323C132.161 38.3185 130.516 37.8117 129.389 36.7982C128.281 35.7671 127.726 34.2905 127.726 32.3683V31.0315L129.168 31.5557C128.927 32.3071 128.576 33.111 128.114 33.9672C127.653 34.8235 127.006 35.6361 126.174 36.405C125.361 37.1564 124.327 37.7768 123.07 38.2661C121.814 38.7554 120.271 39 118.442 39ZM120.825 33.6527C122.119 33.6527 123.264 33.3731 124.262 32.8139C125.26 32.2547 126.045 31.4159 126.618 30.2975C127.191 29.1616 127.477 27.7549 127.477 26.0773V25.4744H123.985C122.008 25.4744 120.465 25.7191 119.356 26.2084C118.266 26.6977 117.5 27.3006 117.056 28.017C116.613 28.716 116.391 29.3976 116.391 30.0616C116.391 30.5858 116.52 31.1276 116.779 31.6868C117.056 32.246 117.509 32.7178 118.137 33.1022C118.784 33.4692 119.68 33.6527 120.825 33.6527Z" fill="white"/>
<path d="M140.991 38.3185V10.0092H148.973V16.536L148.779 15.3565C149.684 13.4867 150.968 12.0188 152.631 10.9528C154.294 9.86938 156.299 9.32765 158.645 9.32765C160.974 9.32765 162.877 9.82569 164.355 10.8218C165.851 11.8178 166.96 13.1983 167.681 14.9633C168.401 16.7283 168.761 18.7641 168.761 21.0708V38.3185H160.502V21.5688C160.502 19.5592 160.151 18.0039 159.449 16.903C158.747 15.7846 157.528 15.2254 155.791 15.2254C153.74 15.2254 152.132 16.0555 150.968 17.7156C149.823 19.3757 149.25 21.9183 149.25 25.3434V38.3185H140.991Z" fill="white"/>
<path d="M183.772 39C181.278 39 179.107 38.4059 177.259 37.2176C175.411 36.0293 173.989 34.3255 172.991 32.1062C171.993 29.8868 171.494 27.2219 171.494 24.1114C171.494 21.0009 171.993 18.3447 172.991 16.1429C174.007 13.9235 175.439 12.2372 177.287 11.0839C179.134 9.91306 181.342 9.32765 183.911 9.32765C186.109 9.32765 188.068 9.80821 189.786 10.7693C191.523 11.7304 192.936 13.3119 194.027 15.5138L193.167 15.5662V0.572739L201.427 0.572739V38.3185H193.611V32.6304L193.694 33.0236C192.696 35.0682 191.338 36.5797 189.62 37.5583C187.902 38.5194 185.952 39 183.772 39ZM186.793 33.1022C188.086 33.1022 189.241 32.7789 190.257 32.1324C191.274 31.4858 192.077 30.4985 192.669 29.1704C193.278 27.8423 193.583 26.1909 193.583 24.2163C193.583 21.228 192.936 18.9825 191.643 17.4797C190.35 15.9768 188.751 15.2254 186.848 15.2254C184.853 15.2254 183.245 16.0205 182.026 17.6107C180.825 19.201 180.224 21.4203 180.224 24.2687C180.224 27.0472 180.806 29.2141 181.971 30.7693C183.153 32.3246 184.761 33.1022 186.793 33.1022Z" fill="white"/>
<path d="M214.913 39C213.01 39 211.254 38.6855 209.647 38.0564C208.039 37.4098 206.746 36.4574 205.767 35.1992C204.806 33.941 204.326 32.3683 204.326 30.481C204.326 28.4539 204.945 26.7326 206.182 25.3172C207.42 23.9017 209.222 22.827 211.587 22.0931C213.952 21.3416 216.807 20.9659 220.151 20.9659H224.364L223.865 21.6737V20.0485C223.865 18.1787 223.504 16.7894 222.784 15.8807C222.063 14.9546 220.872 14.4915 219.209 14.4915C217.62 14.4915 216.4 14.8934 215.55 15.6972C214.719 16.4836 214.211 17.6107 214.026 19.0786L205.6 17.7156C205.915 16.1429 206.626 14.7274 207.735 13.4692C208.862 12.1935 210.414 11.18 212.391 10.4286C214.368 9.67715 216.797 9.30144 219.68 9.30144C222.322 9.30144 224.558 9.70336 226.387 10.5072C228.216 11.2936 229.602 12.578 230.544 14.3604C231.505 16.1429 231.985 18.5282 231.985 21.5164V31.1363C231.985 31.7304 232.068 32.1236 232.235 32.3159C232.419 32.5081 232.798 32.6042 233.371 32.6042H234.729V38.3185H230.794C228.632 38.3185 226.987 37.8117 225.86 36.7982C224.752 35.7671 224.197 34.2905 224.197 32.3683V31.0315L225.639 31.5557C225.398 32.3071 225.047 33.111 224.585 33.9672C224.123 34.8235 223.477 35.6361 222.645 36.405C221.832 37.1564 220.798 37.7768 219.541 38.2661C218.285 38.7554 216.742 39 214.913 39ZM217.296 33.6527C218.59 33.6527 219.735 33.3731 220.733 32.8139C221.731 32.2547 222.516 31.4159 223.089 30.2975C223.662 29.1616 223.948 27.7549 223.948 26.0773V25.4744H220.456C218.479 25.4744 216.936 25.7191 215.827 26.2084C214.737 26.6977 213.97 27.3006 213.527 28.017C213.084 28.716 212.862 29.3976 212.862 30.0616C212.862 30.5858 212.991 31.1276 213.25 31.6868C213.527 32.246 213.98 32.7178 214.608 33.1022C215.255 33.4692 216.151 33.6527 217.296 33.6527Z" fill="white"/>
<path d="M237.462 38.3185V10.0092H245.444V14.5701C246.331 12.9275 247.541 11.6431 249.074 10.7169C250.627 9.79074 252.437 9.32765 254.507 9.32765C256.576 9.32765 258.331 9.81695 259.773 10.7955C261.214 11.7567 262.285 13.1721 262.987 15.0419C264.096 13.0848 265.491 11.6431 267.172 10.7169C268.872 9.79074 270.683 9.32765 272.605 9.32765C275.635 9.32765 277.954 10.3412 279.561 12.3683C281.187 14.3779 282 17.27 282 21.0446V38.3185H273.741V20.9659C273.741 19.9 273.621 18.9388 273.381 18.0826C273.159 17.2088 272.762 16.5186 272.189 16.0118C271.616 15.4875 270.794 15.2254 269.722 15.2254C268.447 15.2254 267.376 15.6186 266.507 16.405C265.639 17.1913 264.974 18.2748 264.512 19.6553C264.068 21.0183 263.847 22.5911 263.847 24.3735V38.3185H255.588V20.9659C255.588 19.9 255.477 18.9301 255.255 18.0564C255.033 17.1826 254.627 16.4924 254.035 15.9856C253.463 15.4788 252.65 15.2254 251.597 15.2254C250.34 15.2254 249.268 15.6186 248.382 16.405C247.513 17.1739 246.848 18.2486 246.386 19.6291C245.943 20.9921 245.721 22.5824 245.721 24.3997V38.3185H237.462Z" fill="white"/>
</svg>
